<?xml version="1.0" encoding="UTF-8" standalone="no"?>
<!-- Created with Inkscape (http://www.inkscape.org/) -->

<svg
   xmlns:osb="http://www.openswatchbook.org/uri/2009/osb"
   xmlns:dc="http://purl.org/dc/elements/1.1/"
   xmlns:cc="http://creativecommons.org/ns#"
   xmlns:rdf="http://www.w3.org/1999/02/22-rdf-syntax-ns#"
   xmlns:svg="http://www.w3.org/2000/svg"
   xmlns="http://www.w3.org/2000/svg"
   xmlns:xlink="http://www.w3.org/1999/xlink"
   xmlns:sodipodi="http://sodipodi.sourceforge.net/DTD/sodipodi-0.dtd"
   xmlns:inkscape="http://www.inkscape.org/namespaces/inkscape"
   width="101.02695mm"
   height="117.86208mm"
   viewBox="0 0 101.02695 117.86208"
   version="1.1"
   id="svg8"
   inkscape:version="0.92.4 (33fec40, 2019-01-16)"
   sodipodi:docname="html5w.svg">
  <defs
     id="defs2">
    <linearGradient
       id="linearGradient948"
       osb:paint="solid">
      <stop
         style="stop-color:#000000;stop-opacity:1;"
         offset="0"
         id="stop946" />
    </linearGradient>
    <linearGradient
       inkscape:collect="always"
       xlink:href="#linearGradient948"
       id="linearGradient950"
       x1="200.93806"
       y1="474.2933"
       x2="585.05493"
       y2="474.2933"
       gradientUnits="userSpaceOnUse" />
  </defs>
  <sodipodi:namedview
     id="base"
     pagecolor="#ffffff"
     bordercolor="#666666"
     borderopacity="1.0"
     inkscape:pageopacity="0.0"
     inkscape:pageshadow="2"
     inkscape:zoom="0.98994949"
     inkscape:cx="78.488855"
     inkscape:cy="261.71625"
     inkscape:document-units="mm"
     inkscape:current-layer="layer1"
     showgrid="false"
     inkscape:window-width="1920"
     inkscape:window-height="1016"
     inkscape:window-x="0"
     inkscape:window-y="1227"
     inkscape:window-maximized="1" />
  <metadata
     id="metadata5">
    <rdf:RDF>
      <cc:Work
         rdf:about="">
        <dc:format>image/svg+xml</dc:format>
        <dc:type
           rdf:resource="http://purl.org/dc/dcmitype/StillImage" />
        <dc:title></dc:title>
      </cc:Work>
    </rdf:RDF>
  </metadata>
  <g
     inkscape:label="Layer 1"
     inkscape:groupmode="layer"
     id="layer1"
     transform="translate(-53.432134,-66.567579)">
    <path
       id="path933"
       d="m 53.070731,66.253976 9.23396,104.722084 41.433759,13.81125 41.69833,-13.81125 9.23396,-104.722084 z M 134.61532,100.09418 H 85.984901 l 1.084791,13.07042 h 46.460838 l -3.59833,39.26417 -25.90271,7.14375 v 0.0794 h -0.29104 l -26.114383,-7.22312 -1.5875,-20.05542 h 12.620625 l 0.926042,10.08062 14.155216,3.83646 14.20812,-3.83646 1.5875,-16.45708 H 75.375109 L 71.988441,87.473559 h 63.791049 z"
       inkscape:connector-curvature="0"
       style="stroke-width:0.26458332" />
    <path
       style="fill:url(#linearGradient950);fill-opacity:1;stroke:#0000ff;stroke-width:1.01015258"
       d="m 313.18878,671.7777 c -42.1563,-14.10196 -76.81245,-25.80457 -77.01367,-26.00579 -0.38817,-0.38817 -34.73196,-388.33983 -34.73196,-392.33651 v -2.34647 h 191.5127 191.5127 l -0.56758,3.78807 c -0.31217,2.08344 -8.09894,89.92883 -17.30392,195.21198 -9.205,105.28315 -16.94357,192.4085 -17.19684,193.6119 -0.40554,1.92693 -9.71133,5.27161 -77.99179,28.03173 -42.64221,14.21406 -78.44042,25.80803 -79.55156,25.76438 -1.11115,-0.0436 -36.51178,-11.61732 -78.66808,-25.71929 z m 128.41513,-81.61976 c 26.80528,-7.40145 49.00922,-13.72954 49.3421,-14.06241 0.74542,-0.74541 14.27147,-148.17477 13.65134,-148.79491 -0.24484,-0.24483 -39.68092,-0.44515 -87.63574,-0.44515 h -87.1906 l -0.46639,-2.27284 c -0.50643,-2.46801 -3.61271,-40.25989 -3.61271,-43.95333 v -2.26115 h 91.92388 91.92388 l 0.008,-2.27285 c 0.005,-1.25006 0.90999,-11.81878 2.01185,-23.48604 1.10187,-11.66726 2.0072,-21.55413 2.01185,-21.97082 0.005,-0.41669 -54.31212,-0.75761 -120.7044,-0.75761 H 272.15382 v 3.10879 c 0,1.70984 2.72742,34.02422 6.06092,71.80975 3.3335,37.78552 6.06092,69.34279 6.06092,70.12726 0,1.21679 12.24208,1.42632 83.33758,1.42632 78.6854,0 83.33909,0.0987 83.36462,1.76776 0.0419,2.74318 -5.3607,59.29752 -5.70597,59.72944 -0.58419,0.73081 -51.4054,14.25151 -53.41499,14.21076 -1.11117,-0.0225 -13.38452,-3.146 -27.27412,-6.94104 -23.24946,-6.35244 -25.28155,-7.08638 -25.60324,-9.24743 -0.19219,-1.29104 -1.10133,-9.8699 -2.02031,-19.06413 l -1.67087,-16.71678 -23.99112,-0.27082 -23.99113,-0.27082 -0.009,2.29112 c -0.0236,5.66791 5.18724,70.22863 5.84229,72.38486 0.67711,2.22882 4.40498,3.43741 48.71547,15.79369 26.39024,7.3591 48.6641,13.42865 49.49748,13.48788 0.83337,0.0592 23.44681,-5.94805 50.25208,-13.3495 z"
       id="path944"
       inkscape:connector-curvature="0"
       transform="scale(0.26458333)" />
    <path
       style="fill:#ffffff;fill-opacity:1;stroke:#0000ff;stroke-width:1.01015258"
       d="m 314.12551,671.29792 c -41.6411,-13.88181 -76.12425,-25.65281 -76.62922,-26.15779 -0.93521,-0.93521 -3.38778,-27.3766 -20.34072,-219.29481 C 204.85147,286.55488 202.4533,258.6979 202.4533,255.06441 v -2.96533 h 190.41375 c 180.67433,0 190.41358,0.0904 190.41027,1.76777 -0.002,0.97227 -0.67735,8.81358 -1.50096,17.42513 -0.82361,8.61155 -7.8757,88.16106 -15.67132,176.77669 -7.79561,88.61564 -14.84627,168.16515 -15.66814,176.7767 -0.82186,8.61155 -1.49587,16.41044 -1.49779,17.33086 -0.002,1.12366 -2.40974,2.67071 -7.32709,4.70854 -14.86029,6.15836 -146.38958,49.69728 -150.04236,49.66713 -0.95319,-0.008 -35.80305,-11.37216 -77.44415,-25.25398 z m 108.30222,-75.26731 c 58.44921,-15.85783 68.02141,-18.80014 68.92907,-21.18745 0.8563,-2.25224 6.07013,-55.18641 10.54668,-107.07651 1.38997,-16.11193 2.75317,-31.83683 3.02933,-34.9442 l 0.50212,-5.64977 -18.90829,-0.66083 c -10.39956,-0.36346 -49.93261,-0.66211 -87.85121,-0.66367 -64.98063,-0.003 -68.94363,-0.10446 -68.95539,-1.77063 -0.007,-0.97227 -0.68309,-9.26815 -1.50275,-18.43528 -0.81966,-9.16714 -1.49589,-18.82672 -1.50275,-21.46574 l -0.0125,-4.79823 h 91.45051 c 72.29515,0 91.52585,-0.26449 91.81018,-1.26269 0.1978,-0.69448 1.21754,-11.6577 2.26608,-24.3627 1.42966,-17.32297 1.6123,-23.21287 0.73034,-23.55131 -0.64684,-0.24822 -55.20631,-0.53558 -121.24326,-0.63858 l -120.06716,-0.18727 0.22548,5.55584 c 0.58317,14.36898 11.74788,140.01948 12.51561,140.85381 0.52267,0.568 33.69089,1.12691 82.78885,1.39505 71.92148,0.39278 81.98839,0.63386 82.50332,1.97577 0.48273,1.25797 -4.47296,57.97351 -5.10149,58.38415 -1.59885,1.04458 -50.46909,13.56386 -52.94786,13.56386 -3.64191,0 -47.89175,-12.23429 -50.60903,-13.99249 -0.89298,-0.5778 -1.96534,-6.81319 -3.23491,-18.81 -1.04451,-9.87012 -2.0344,-18.05574 -2.19974,-18.19025 -0.86931,-0.70724 -48.26547,-1.37042 -48.69136,-0.68132 -0.52999,0.85755 1.40503,29.31506 3.96014,58.24006 1.73429,19.63299 1.1591,18.59048 12.08022,21.89481 22.89012,6.92571 85.39462,23.93552 88.17502,23.99574 1.81319,0.0393 15.90482,-3.34931 31.31473,-7.53017 z"
       id="path952"
       inkscape:connector-curvature="0"
       transform="scale(0.26458333)" />
  </g>
</svg>
