<?xml version="1.0" encoding="UTF-8" standalone="no"?>
<svg
   xmlns:dc="http://purl.org/dc/elements/1.1/"
   xmlns:cc="http://creativecommons.org/ns#"
   xmlns:rdf="http://www.w3.org/1999/02/22-rdf-syntax-ns#"
   xmlns:svg="http://www.w3.org/2000/svg"
   xmlns="http://www.w3.org/2000/svg"
   xmlns:sodipodi="http://sodipodi.sourceforge.net/DTD/sodipodi-0.dtd"
   xmlns:inkscape="http://www.inkscape.org/namespaces/inkscape"
   viewBox="0 0 384 512"
   version="1.1"
   id="svg1063"
   sodipodi:docname="java.svg"
   inkscape:version="0.92.4 (33fec40, 2019-01-16)">
  <metadata
     id="metadata1069">
    <rdf:RDF>
      <cc:Work
         rdf:about="">
        <dc:format>image/svg+xml</dc:format>
        <dc:type
           rdf:resource="http://purl.org/dc/dcmitype/StillImage" />
      </cc:Work>
    </rdf:RDF>
  </metadata>
  <defs
     id="defs1067" />
  <sodipodi:namedview
     pagecolor="#ffffff"
     bordercolor="#666666"
     borderopacity="1"
     objecttolerance="10"
     gridtolerance="10"
     guidetolerance="10"
     inkscape:pageopacity="0"
     inkscape:pageshadow="2"
     inkscape:window-width="1920"
     inkscape:window-height="1016"
     id="namedview1065"
     showgrid="false"
     inkscape:zoom="0.921875"
     inkscape:cx="178.2249"
     inkscape:cy="382.824"
     inkscape:window-x="0"
     inkscape:window-y="1227"
     inkscape:window-maximized="1"
     inkscape:current-layer="svg1063" />
  <path
     d="M277.74 312.9c9.8-6.7 23.4-12.5 23.4-12.5s-38.7 7-77.2 10.2c-47.1 3.9-97.7 4.7-123.1 1.3-60.1-8 33-30.1 33-30.1s-36.1-2.4-80.6 19c-52.5 25.4 130 37 224.5 12.1zm-85.4-32.1c-19-42.7-83.1-80.2 0-145.8C296 53.2 242.84 0 242.84 0c21.5 84.5-75.6 110.1-110.7 162.6-23.9 35.9 11.7 74.4 60.2 118.2zm114.6-176.2c.1 0-175.2 43.8-91.5 140.2 24.7 28.4-6.5 54-6.5 54s62.7-32.4 33.9-72.9c-26.9-37.8-47.5-56.6 64.1-121.3zm-6.1 270.5a12.19 12.19 0 0 1-2 2.6c128.3-33.7 81.1-118.9 19.8-97.3a17.33 17.33 0 0 0-8.2 6.3 70.45 70.45 0 0 1 11-3c31-6.5 75.5 41.5-20.6 91.4zM348 437.4s14.5 11.9-15.9 21.2c-57.9 17.5-240.8 22.8-291.6.7-18.3-7.9 16-19 26.8-21.3 11.2-2.4 17.7-2 17.7-2-20.3-14.3-131.3 28.1-56.4 40.2C232.84 509.4 401 461.3 348 437.4zM124.44 396c-78.7 22 47.9 67.4 148.1 24.5a185.89 185.89 0 0 1-28.2-13.8c-44.7 8.5-65.4 9.1-106 4.5-33.5-3.8-13.9-15.2-13.9-15.2zm179.8 97.2c-78.7 14.8-175.8 13.1-233.3 3.6 0-.1 11.8 9.7 72.4 13.6 92.2 5.9 233.8-3.3 237.1-46.9 0 0-6.4 16.5-76.2 29.7zM260.64 353c-59.2 11.4-93.5 11.1-136.8 6.6-33.5-3.5-11.6-19.7-11.6-19.7-86.8 28.8 48.2 61.4 169.5 25.9a60.37 60.37 0 0 1-21.1-12.8z"
     id="path1061"
     style="fill:#ffffff;stroke:#0000ff;fill-opacity:1" />
  <path
     style="fill:#ffffff;fill-opacity:1;stroke:#0000ff;stroke-width:1.08474576"
     d="m 172.52473,261.47283 c -29.88322,-29.28271 -42.79172,-47.56818 -46.58967,-65.99637 -2.87016,-13.92645 0.99892,-26.15791 12.97746,-41.02611 7.59723,-9.42996 18.51128,-19.15082 46.96257,-41.82826 10.59133,-8.44195 22.95323,-18.860094 27.47088,-23.151428 9.4197,-8.947789 19.78087,-22.236208 24.25327,-31.105321 7.23819,-14.353871 10.26895,-32.810506 7.75674,-47.23671 -0.70744,-4.062387 -1.06098,-7.611427 -0.78565,-7.8867552 0.84637,-0.8463735 5.98163,8.7051712 8.32542,15.4852122 6.13291,17.741085 2.56714,40.363369 -9.5612,60.659084 -10.72196,17.942281 -24.89597,33.284908 -50.78687,54.974168 -23.17979,19.4181 -33.70054,32.16924 -39.05223,47.33125 -2.8277,8.01125 -3.44775,20.72738 -1.43632,29.45632 1.86985,8.11449 8.89466,21.56741 18.71039,35.83148 11.83082,17.19237 19.43101,29.38936 18.74226,30.0781 -0.29475,0.29475 -7.93892,-6.71835 -16.98705,-15.58466 z"
     id="path5317"
     inkscape:connector-curvature="0" />
</svg>
