<?xml version="1.0" encoding="UTF-8" standalone="no"?>
<svg
   xmlns:dc="http://purl.org/dc/elements/1.1/"
   xmlns:cc="http://creativecommons.org/ns#"
   xmlns:rdf="http://www.w3.org/1999/02/22-rdf-syntax-ns#"
   xmlns:svg="http://www.w3.org/2000/svg"
   xmlns="http://www.w3.org/2000/svg"
   xmlns:sodipodi="http://sodipodi.sourceforge.net/DTD/sodipodi-0.dtd"
   xmlns:inkscape="http://www.inkscape.org/namespaces/inkscape"
   viewBox="0 0 448 512"
   version="1.1"
   id="svg7106"
   sodipodi:docname="linux.svg"
   inkscape:version="0.92.4 (33fec40, 2019-01-16)">
  <metadata
     id="metadata7112">
    <rdf:RDF>
      <cc:Work
         rdf:about="">
        <dc:format>image/svg+xml</dc:format>
        <dc:type
           rdf:resource="http://purl.org/dc/dcmitype/StillImage" />
      </cc:Work>
    </rdf:RDF>
  </metadata>
  <defs
     id="defs7110" />
  <sodipodi:namedview
     pagecolor="#ffffff"
     bordercolor="#666666"
     borderopacity="1"
     objecttolerance="10"
     gridtolerance="10"
     guidetolerance="10"
     inkscape:pageopacity="0"
     inkscape:pageshadow="2"
     inkscape:window-width="1920"
     inkscape:window-height="1016"
     id="namedview7108"
     showgrid="false"
     inkscape:zoom="0.4609375"
     inkscape:cx="224"
     inkscape:cy="256"
     inkscape:window-x="0"
     inkscape:window-y="1227"
     inkscape:window-maximized="1"
     inkscape:current-layer="svg7106" />
  <path
     d="M220.8 123.3c1 .5 1.8 1.7 3 1.7 1.1 0 2.8-.4 2.9-1.5.2-1.4-1.9-2.3-3.2-2.9-1.7-.7-3.9-1-5.5-.1-.4.2-.8.7-.6 1.1.3 1.3 2.3 1.1 3.4 1.7zm-21.9 1.7c1.2 0 2-1.2 3-1.7 1.1-.6 3.1-.4 3.5-1.6.2-.4-.2-.9-.6-1.1-1.6-.9-3.8-.6-5.5.1-1.3.6-3.4 1.5-3.2 2.9.1 1 1.8 1.5 2.8 1.4zM420 403.8c-3.6-4-5.3-11.6-7.2-19.7-1.8-8.1-3.9-16.8-10.5-22.4-1.3-1.1-2.6-2.1-4-2.9-1.3-.8-2.7-1.5-4.1-2 9.2-27.3 5.6-54.5-3.7-79.1-11.4-30.1-31.3-56.4-46.5-74.4-17.1-21.5-33.7-41.9-33.4-72C311.1 85.4 315.7.1 234.8 0 132.4-.2 158 103.4 156.9 135.2c-1.7 23.4-6.4 41.8-22.5 64.7-18.9 22.5-45.5 58.8-58.1 96.7-6 17.9-8.8 36.1-6.2 53.3-6.5 5.8-11.4 14.7-16.6 20.2-4.2 4.3-10.3 5.9-17 8.3s-14 6-18.5 14.5c-2.1 3.9-2.8 8.1-2.8 12.4 0 3.9.6 7.9 1.2 11.8 1.2 8.1 2.5 15.7.8 20.8-5.2 14.4-5.9 24.4-2.2 31.7 3.8 7.3 11.4 10.5 20.1 12.3 17.3 3.6 40.8 2.7 59.3 12.5 19.8 10.4 39.9 14.1 55.9 10.4 11.6-2.6 21.1-9.6 25.9-20.2 12.5-.1 26.3-5.4 48.3-6.6 14.9-1.2 33.6 5.3 55.1 4.1.6 2.3 1.4 4.6 2.5 6.7v.1c8.3 16.7 23.8 24.3 40.3 23 16.6-1.3 34.1-11 48.3-27.9 13.6-16.4 36-23.2 50.9-32.2 7.4-4.5 13.4-10.1 13.9-18.3.4-8.2-4.4-17.3-15.5-29.7zM223.7 87.3c9.8-22.2 34.2-21.8 44-.4 6.5 14.2 3.6 30.9-4.3 40.4-1.6-.8-5.9-2.6-12.6-4.9 1.1-1.2 3.1-2.7 3.9-4.6 4.8-11.8-.2-27-9.1-27.3-7.3-.5-13.9 10.8-11.8 23-4.1-2-9.4-3.5-13-4.4-1-6.9-.3-14.6 2.9-21.8zM183 75.8c10.1 0 20.8 14.2 19.1 33.5-3.5 1-7.1 2.5-10.2 4.6 1.2-8.9-3.3-20.1-9.6-19.6-8.4.7-9.8 21.2-1.8 28.1 1 .8 1.9-.2-5.9 5.5-15.6-14.6-10.5-52.1 8.4-52.1zm-13.6 60.7c6.2-4.6 13.6-10 14.1-10.5 4.7-4.4 13.5-14.2 27.9-14.2 7.1 0 15.6 2.3 25.9 8.9 6.3 4.1 11.3 4.4 22.6 9.3 8.4 3.5 13.7 9.7 10.5 18.2-2.6 7.1-11 14.4-22.7 18.1-11.1 3.6-19.8 16-38.2 14.9-3.9-.2-7-1-9.6-2.1-8-3.5-12.2-10.4-20-15-8.6-4.8-13.2-10.4-14.7-15.3-1.4-4.9 0-9 4.2-12.3zm3.3 334c-2.7 35.1-43.9 34.4-75.3 18-29.9-15.8-68.6-6.5-76.5-21.9-2.4-4.7-2.4-12.7 2.6-26.4v-.2c2.4-7.6.6-16-.6-23.9-1.2-7.8-1.8-15 .9-20 3.5-6.7 8.5-9.1 14.8-11.3 10.3-3.7 11.8-3.4 19.6-9.9 5.5-5.7 9.5-12.9 14.3-18 5.1-5.5 10-8.1 17.7-6.9 8.1 1.2 15.1 6.8 21.9 16l19.6 35.6c9.5 19.9 43.1 48.4 41 68.9zm-1.4-25.9c-4.1-6.6-9.6-13.6-14.4-19.6 7.1 0 14.2-2.2 16.7-8.9 2.3-6.2 0-14.9-7.4-24.9-13.5-18.2-38.3-32.5-38.3-32.5-13.5-8.4-21.1-18.7-24.6-29.9s-3-23.3-.3-35.2c5.2-22.9 18.6-45.2 27.2-59.2 2.3-1.7.8 3.2-8.7 20.8-8.5 16.1-24.4 53.3-2.6 82.4.6-20.7 5.5-41.8 13.8-61.5 12-27.4 37.3-74.9 39.3-112.7 1.1.8 4.6 3.2 6.2 4.1 4.6 2.7 8.1 6.7 12.6 10.3 12.4 10 28.5 9.2 42.4 1.2 6.2-3.5 11.2-7.5 15.9-9 9.9-3.1 17.8-8.6 22.3-15 7.7 30.4 25.7 74.3 37.2 95.7 6.1 11.4 18.3 35.5 23.6 64.6 3.3-.1 7 .4 10.9 1.4 13.8-35.7-11.7-74.2-23.3-84.9-4.7-4.6-4.9-6.6-2.6-6.5 12.6 11.2 29.2 33.7 35.2 59 2.8 11.6 3.3 23.7.4 35.7 16.4 6.8 35.9 17.9 30.7 34.8-2.2-.1-3.2 0-4.2 0 3.2-10.1-3.9-17.6-22.8-26.1-19.6-8.6-36-8.6-38.3 12.5-12.1 4.2-18.3 14.7-21.4 27.3-2.8 11.2-3.6 24.7-4.4 39.9-.5 7.7-3.6 18-6.8 29-32.1 22.9-76.7 32.9-114.3 7.2zm257.4-11.5c-.9 16.8-41.2 19.9-63.2 46.5-13.2 15.7-29.4 24.4-43.6 25.5s-26.5-4.8-33.7-19.3c-4.7-11.1-2.4-23.1 1.1-36.3 3.7-14.2 9.2-28.8 9.9-40.6.8-15.2 1.7-28.5 4.2-38.7 2.6-10.3 6.6-17.2 13.7-21.1.3-.2.7-.3 1-.5.8 13.2 7.3 26.6 18.8 29.5 12.6 3.3 30.7-7.5 38.4-16.3 9-.3 15.7-.9 22.6 5.1 9.9 8.5 7.1 30.3 17.1 41.6 10.6 11.6 14 19.5 13.7 24.6zM173.3 148.7c2 1.9 4.7 4.5 8 7.1 6.6 5.2 15.8 10.6 27.3 10.6 11.6 0 22.5-5.9 31.8-10.8 4.9-2.6 10.9-7 14.8-10.4s5.9-6.3 3.1-6.6-2.6 2.6-6 5.1c-4.4 3.2-9.7 7.4-13.9 9.8-7.4 4.2-19.5 10.2-29.9 10.2s-18.7-4.8-24.9-9.7c-3.1-2.5-5.7-5-7.7-6.9-1.5-1.4-1.9-4.6-4.3-4.9-1.4-.1-1.8 3.7 1.7 6.5z"
     id="path7104"
     style="fill:#ffffff;stroke:#0000ff;fill-opacity:1" />
  <path
     style="fill:#ffffff;fill-opacity:1;stroke:#0000ff;stroke-width:2.16949153"
     d="m 302.75254,507.53334 c -9.2475,-4.86656 -17.69971,-13.23906 -20.71573,-20.52042 -2.32251,-5.60698 -3.62865,-6.25805 -12.63222,-6.29658 -5.52302,-0.0236 -16.87578,-1.05439 -25.22832,-2.29057 -12.09763,-1.79046 -20.48155,-1.49037 -41.22034,1.47539 -25.16422,3.59864 -26.24589,3.97405 -32.38011,11.23807 -8.33062,9.86498 -17.6159,13.50018 -34.26207,13.41366 -13.06798,-0.0679 -20.27764,-2.02866 -46.971909,-12.77461 -6.406395,-2.57894 -21.675285,-6.09658 -33.930869,-7.81694 -26.794109,-3.76123 -31.646711,-5.44853 -37.66166,-13.09529 -5.443331,-6.92007 -5.65515,-10.987 -1.404237,-26.96138 2.514775,-9.45019 2.69813,-14.93486 0.889066,-26.59458 -3.313007,-21.35283 0.584504,-28.4961 20.840435,-38.19578 11.279757,-5.40139 17.331218,-10.0198 23.523825,-17.95318 7.924005,-10.15148 8.370078,-11.56575 8.996836,-28.52449 1.158428,-31.34462 16.346964,-67.25745 44.807783,-105.94662 40.42691,-54.95567 41.15877,-57.12735 41.77552,-123.96227 0.50981,-55.244877 2.00694,-61.860307 18.05252,-79.769423 14.35958,-16.0272873 26.64889,-20.449739 57.01301,-20.5167914 22.99919,-0.050788 25.917,0.4201806 37.33241,6.0258994 18.78238,9.22336 30.22263,26.116221 36.32838,53.643029 1.44798,6.528059 3.3001,29.442078 4.11576,50.920046 1.43239,37.71614 1.71271,39.53282 8.20179,53.15254 3.69527,7.75593 16.12066,26.13126 27.61196,40.83405 32.37313,41.42051 45.1162,66.02159 50.79559,98.06311 3.00118,16.93199 3.02737,20.93907 0.23111,35.38128 l -3.15338,16.28679 6.73226,5.37179 c 5.21897,4.16432 7.83857,9.20214 11.6541,22.4123 2.70702,9.37229 6.68975,18.99305 8.85052,21.37949 7.54007,8.32755 13.04605,19.57856 13.0541,26.67488 0.0108,9.67131 -5.82055,15.00333 -30.15403,27.57107 -14.11577,7.29051 -25.56824,15.42879 -38.26499,27.19165 -19.36163,17.93748 -31.22146,23.85579 -47.48477,23.69588 -4.85862,-0.0477 -11.76268,-1.62816 -15.34234,-3.512 z m 38.71937,-7.66026 c 4.59058,-2.32688 15.85376,-11.24039 25.0293,-19.80782 11.06228,-10.3291 22.18405,-18.2505 33.01152,-23.51226 19.94229,-9.69118 30.15507,-17.94688 30.15507,-24.37643 0,-2.64395 -4.31491,-10.9349 -9.58868,-18.42432 -5.6123,-7.97019 -10.68123,-18.2672 -12.22333,-24.83043 -5.04471,-21.47083 -10.39915,-27.48453 -24.47143,-27.48453 -4.99625,0 -11.30246,2.54687 -18.80131,7.59322 -20.95189,14.09959 -38.37997,9.59735 -43.98601,-11.363 -2.76545,-10.33968 -3.72044,-10.92605 -8.74754,-5.37116 -6.6619,7.36133 -10.38828,20.40847 -12.41804,43.47928 -1.12037,12.73424 -4.40259,31.45149 -7.29385,41.59386 -9.88175,34.66459 -9.80627,44.0629 0.45141,56.21921 11.17151,13.23928 30.30831,15.6995 48.88289,6.28438 z m -181.93656,-4.7924 c 7.511,-4.92141 12.1573,-12.69203 13.47842,-22.54173 1.42727,-10.6411 -3.91286,-21.52774 -22.04022,-44.93217 C 143.5801,418.06102 131.85923,400 124.92717,387.47119 110.36772,361.15684 104.2306,353.80736 93.995921,350.42961 c -10.309918,-3.40256 -18.359198,0.428 -27.733185,13.19791 -8.55657,11.6564 -12.895804,14.84618 -27.73589,20.38884 -15.261993,5.70023 -17.648428,10.59645 -15.947871,32.72007 0.996203,12.96024 0.486463,21.73577 -1.764554,30.37803 -5.825565,22.36585 -1.647822,26.17357 34.736687,31.65999 15.074795,2.27315 31.953604,6.21024 37.508465,8.74913 21.328787,9.74841 33.543487,12.81766 47.522937,11.94136 7.51795,-0.47128 15.96199,-2.4246 18.95284,-4.38426 z M 252.6587,454.7927 c 6.7121,-2.30932 16.96171,-6.87327 22.77689,-10.14213 12.95637,-7.28314 14.44868,-11.22942 18.59581,-49.17509 3.41394,-31.23684 8.05359,-43.80296 18.43777,-49.93705 3.605,-2.12953 6.55456,-5.14942 6.55456,-6.71089 0,-1.56145 2.0234,-5.41134 4.49644,-8.5553 5.60859,-7.13017 14.46713,-7.48904 31.11442,-1.2605 14.74701,5.51756 26.09143,15.51655 24.50167,21.59582 -0.73292,2.80261 -0.0577,4.32125 1.92109,4.32125 5.03157,0 3.5984,-12.03365 -2.26274,-18.99921 -2.92263,-3.47333 -9.68624,-8.63471 -15.03024,-11.46969 l -9.71639,-5.15454 1.2024,-10.15222 c 1.56641,-13.22604 -2.34386,-29.7208 -11.54682,-48.70808 -7.73087,-15.95008 -25.21151,-37.91802 -28.01041,-35.20071 -0.8893,0.86339 2.04611,5.62429 6.52309,10.57978 16.08294,17.80189 25.75729,46.98266 22.75094,68.62371 -1.50545,10.83683 -2.57649,12.2532 -7.97097,10.54106 -2.82737,-0.89737 -5.21837,-5.70388 -7.92285,-15.92691 -2.13038,-8.05292 -11.00868,-29.77386 -19.72953,-48.26878 -15.95726,-33.84159 -29.12697,-66.84623 -34.11482,-85.49523 -1.76992,-6.61756 -3.64989,-9.70317 -5.48322,-8.99965 -3.2745,1.25654 -3.7914,-2.25718 -0.62037,-4.21698 3.05111,-1.88569 2.70239,-12.60443 -0.54237,-16.67156 -1.49152,-1.86955 -4.66441,-4.46713 -7.05085,-5.77242 -3.7054,-2.0267 -3.79275,-2.38287 -0.59808,-2.4392 8.98111,-0.1584 13.57754,-25.04895 7.36946,-39.906992 -7.02393,-16.810609 -26.49312,-22.12695 -38.19136,-10.4287 -8.96386,8.963862 -14.35383,31.152542 -8.17324,33.646462 1.49153,0.60184 -3.02123,1.17134 -10.02835,1.26554 -10.7861,0.14501 -12.34705,-0.30247 -10.17687,-2.91737 6.52719,-7.86479 -7.90332,-33.792713 -18.80776,-33.792713 -16.45581,0 -24.11366,33.203613 -11.57062,50.168973 l 4.5196,6.11309 -5.44258,3.56611 c -7.43539,4.87185 -7.43331,15.62698 0.004,22.61432 3.13656,2.94663 4.51829,5.69108 3.25756,6.47026 -1.20417,0.74422 -3.24086,7.041 -4.52598,13.99286 -3.16282,17.10945 -13.08287,44.71738 -27.32885,76.05744 -12.83828,28.24324 -22.40896,57.99719 -22.40896,69.66643 0,15.73196 -8.28672,3.18629 -10.2223,-15.47603 -1.39567,-13.45666 3.40296,-33.12939 12.45507,-51.06154 3.67933,-7.28871 7.61628,-15.85579 8.74877,-19.03798 l 2.05907,-5.7858 -4.66174,5.42373 c -7.01704,8.16404 -20.84101,38.30174 -24.85678,54.19041 -6.016998,23.80665 -1.02647,45.45785 13.56736,58.8614 3.39063,3.11411 12.02241,9.57913 19.18173,14.36675 34.34075,22.96448 47.82713,51.06258 27.78301,57.88431 l -6.92887,2.35815 7.4539,10.25215 c 16.6501,22.90067 54.13391,30.97819 88.64897,19.10326 z"
     id="path7657"
     inkscape:connector-curvature="0" />
</svg>
