<?xml version="1.0" encoding="UTF-8" standalone="no"?>
<svg
   xmlns:dc="http://purl.org/dc/elements/1.1/"
   xmlns:cc="http://creativecommons.org/ns#"
   xmlns:rdf="http://www.w3.org/1999/02/22-rdf-syntax-ns#"
   xmlns:svg="http://www.w3.org/2000/svg"
   xmlns="http://www.w3.org/2000/svg"
   xmlns:sodipodi="http://sodipodi.sourceforge.net/DTD/sodipodi-0.dtd"
   xmlns:inkscape="http://www.inkscape.org/namespaces/inkscape"
   viewBox="0 0 448 512"
   version="1.1"
   id="svg5350"
   sodipodi:docname="python.svg"
   inkscape:version="0.92.4 (33fec40, 2019-01-16)">
  <metadata
     id="metadata5356">
    <rdf:RDF>
      <cc:Work
         rdf:about="">
        <dc:format>image/svg+xml</dc:format>
        <dc:type
           rdf:resource="http://purl.org/dc/dcmitype/StillImage" />
      </cc:Work>
    </rdf:RDF>
  </metadata>
  <defs
     id="defs5354" />
  <sodipodi:namedview
     pagecolor="#ffffff"
     bordercolor="#666666"
     borderopacity="1"
     objecttolerance="10"
     gridtolerance="10"
     guidetolerance="10"
     inkscape:pageopacity="0"
     inkscape:pageshadow="2"
     inkscape:window-width="1920"
     inkscape:window-height="1016"
     id="namedview5352"
     showgrid="false"
     inkscape:zoom="0.4609375"
     inkscape:cx="224"
     inkscape:cy="256"
     inkscape:window-x="0"
     inkscape:window-y="1227"
     inkscape:window-maximized="1"
     inkscape:current-layer="svg5350" />
  <path
     d="M439.8 200.5c-7.7-30.9-22.3-54.2-53.4-54.2h-40.1v47.4c0 36.8-31.2 67.8-66.8 67.8H172.7c-29.2 0-53.4 25-53.4 54.3v101.8c0 29 25.2 46 53.4 54.3 33.8 9.9 66.3 11.7 106.8 0 26.9-7.8 53.4-23.5 53.4-54.3v-40.7H226.2v-13.6h160.2c31.1 0 42.6-21.7 53.4-54.2 11.2-33.5 10.7-65.7 0-108.6zM286.2 404c11.1 0 20.1 9.1 20.1 20.3 0 11.3-9 20.4-20.1 20.4-11 0-20.1-9.2-20.1-20.4.1-11.3 9.1-20.3 20.1-20.3zM167.8 248.1h106.8c29.7 0 53.4-24.5 53.4-54.3V91.9c0-29-24.4-50.7-53.4-55.6-35.8-5.9-74.7-5.6-106.8.1-45.2 8-53.4 24.7-53.4 55.6v40.7h106.9v13.6h-147c-31.1 0-58.3 18.7-66.8 54.2-9.8 40.7-10.2 66.1 0 108.6 7.6 31.6 25.7 54.2 56.8 54.2H101v-48.8c0-35.3 30.5-66.4 66.8-66.4zm-6.7-142.6c-11.1 0-20.1-9.1-20.1-20.3.1-11.3 9-20.4 20.1-20.4 11 0 20.1 9.2 20.1 20.4s-9 20.3-20.1 20.3z"
     id="path5348" />
  <path
     style="fill:#ffffff;fill-opacity:1;stroke:#0000ff;stroke-width:2.16949153"
     d="M 43.498305,357.98359 C 20.454673,348.01779 8.1493001,322.79417 2.2367317,273.4054 -0.28945942,252.30366 1.3789959,231.07315 7.7082889,203.78178 13.514273,178.74686 26.39386,162.18145 47.727067,152.31058 c 9.395779,-4.34743 13.831042,-4.6002 91.771243,-5.23029 l 81.8983,-0.66209 v -7.47351 -7.4735 h -53.36059 -53.36059 l 0.79131,-29.83051 c 0.94027,-35.446046 3.72579,-43.294637 18.74634,-52.820386 16.86632,-10.696307 36.91937,-13.89148 87.18353,-13.89148 29.07631,0 48.78612,0.990619 56.92754,2.861188 25.3097,5.815151 45.51498,26.172678 48.3143,48.678333 0.77822,6.256653 1.09175,36.270645 0.69673,66.697765 -0.79084,60.91547 -1.06728,62.29259 -15.60517,77.74442 -13.63374,14.49082 -12.8082,14.3468 -89.24865,15.56875 -79.11233,1.26466 -80.24973,1.49661 -100.57692,20.51031 -16.995,15.89684 -20.62316,26.57133 -21.59409,63.53245 l -0.812108,30.91526 -24.203359,-0.0849 c -16.656462,-0.0585 -26.571015,-1.10889 -31.796578,-3.3688 z M 174.2934,101.07187 c 15.37656,-12.09521 5.4428,-36.854921 -14.78645,-36.854921 -9.01026,0 -18.38153,10.824587 -18.38153,21.232191 0,17.13742 19.54109,26.34163 33.16798,15.62273 z"
     id="path5901"
     inkscape:connector-curvature="0" />
  <path
     style="fill:#ffffff;fill-opacity:1;stroke:#0000ff;stroke-width:2.16949153"
     d="m 186.68475,474.61552 c -30.64202,-7.28244 -51.02613,-19.08049 -60.34056,-34.92428 l -5.82894,-9.91497 v -64 c 0,-61.48013 0.18471,-64.34168 4.69125,-72.67796 5.53275,-10.2346 16.17298,-20.70027 26.76638,-26.32727 6.80444,-3.61437 14.80497,-4.14668 77.01695,-5.12423 67.16372,-1.05537 69.72707,-1.25284 78.74183,-6.0662 14.36188,-7.6684 25.757,-19.15591 32.38,-32.64248 5.61925,-11.44262 6.08128,-14.46383 6.77207,-44.2805 l 0.74134,-32 22.03832,0.0121 c 12.12106,0.007 25.76842,1.0479 30.32745,2.31387 10.28346,2.85555 24.22902,15.19857 30.039,26.58711 6.83242,13.39264 14.70646,47.71916 16.2081,70.65836 2.80552,42.85796 -12.3581,92.1347 -33.25995,108.08386 l -7.91509,6.03961 -89.12128,1.08475 -89.12128,1.08474 v 7.59322 7.59322 l 52.61017,0.58095 52.61017,0.58095 -0.0476,24.3682 c -0.0551,28.19502 -3.0966,37.50073 -15.9433,48.78028 -18.81582,16.52051 -45.18343,24.4851 -84.89042,25.642 -21.77237,0.63436 -31.91359,-0.06 -44.47457,-3.04533 z m 108.518,-31.84475 c 7.82281,-4.04535 10.80403,-9.35418 10.80403,-19.23936 0,-18.15741 -21.18462,-26.70919 -34.12019,-13.77362 -10.48138,10.48137 -6.77637,28.59954 7.00155,34.23872 6.40676,2.62224 9.29272,2.40542 16.31461,-1.22574 z"
     id="path5903"
     inkscape:connector-curvature="0" />
</svg>
