<?xml version="1.0" encoding="UTF-8" standalone="no"?>
<svg
   xmlns:dc="http://purl.org/dc/elements/1.1/"
   xmlns:cc="http://creativecommons.org/ns#"
   xmlns:rdf="http://www.w3.org/1999/02/22-rdf-syntax-ns#"
   xmlns:svg="http://www.w3.org/2000/svg"
   xmlns="http://www.w3.org/2000/svg"
   xmlns:sodipodi="http://sodipodi.sourceforge.net/DTD/sodipodi-0.dtd"
   xmlns:inkscape="http://www.inkscape.org/namespaces/inkscape"
   viewBox="0 0 448.4812 447.8396"
   version="1.1"
   id="svg846"
   sodipodi:docname="js.svg"
   inkscape:version="0.92.4 (33fec40, 2019-01-16)"
   width="448.4812"
   height="447.8396">
  <metadata
     id="metadata852">
    <rdf:RDF>
      <cc:Work
         rdf:about="">
        <dc:format>image/svg+xml</dc:format>
        <dc:type
           rdf:resource="http://purl.org/dc/dcmitype/StillImage" />
      </cc:Work>
    </rdf:RDF>
  </metadata>
  <defs
     id="defs850" />
  <sodipodi:namedview
     pagecolor="#ffffff"
     bordercolor="#666666"
     borderopacity="1"
     objecttolerance="10"
     gridtolerance="10"
     guidetolerance="10"
     inkscape:pageopacity="0"
     inkscape:pageshadow="2"
     inkscape:window-width="1920"
     inkscape:window-height="1016"
     id="namedview848"
     showgrid="false"
     inkscape:zoom="1.5585938"
     inkscape:cx="224.36892"
     inkscape:cy="223.98396"
     inkscape:window-x="0"
     inkscape:window-y="1227"
     inkscape:window-maximized="1"
     inkscape:current-layer="svg846" />
  <path
     d="M 0.3689223,-0.144361 V 447.85564 H 448.36892 V -0.144361 Z M 244.16892,349.25564 c 0,43.6 -25.6,63.5 -62.9,63.5 -33.7,0 -53.2,-17.4 -63.2,-38.5 l 34.3,-20.7 c 6.6,11.7 12.6,21.6 27.1,21.6 13.8,0 22.6,-5.4 22.6,-26.5 v -143.1 h 42.1 z m 99.6,63.5 c -39.1,0 -64.4,-18.6 -76.7,-43 l 34.3,-19.8 c 9,14.7 20.8,25.6 41.5,25.6 17.4,0 28.6,-8.7 28.6,-20.8 0,-14.4 -11.4,-19.5 -30.7,-28 l -10.5,-4.5 c -30.4,-12.9 -50.5,-29.2 -50.5,-63.5 0,-31.6 24.1,-55.6 61.6,-55.6 26.8,0 46,9.3 59.8,33.7 l -32.8,21 c -7.2,-12.9 -15,-18 -27.1,-18 -12.3,0 -20.1,7.8 -20.1,18 0,12.6 7.8,17.7 25.9,25.6 l 10.5,4.5 c 35.8,15.3 55.9,31 55.9,66.2 0,37.8 -29.8,58.6 -69.7,58.6 z"
     id="path844"
     inkscape:connector-curvature="0" />
  <path
     style="fill:#ffffff;fill-opacity:1;stroke:#0000ff;stroke-width:0.64160401"
     d="M 0.320802,223.9198 V 0.320802 H 224.2406 448.1604 V 223.9198 447.5188 H 224.2406 0.320802 Z M 194.72681,411.93282 c 26.09158,-3.98871 41.50306,-18.11271 47.96397,-43.95705 0.93335,-3.73352 1.06963,-12.77482 1.25997,-83.59358 l 0.21344,-79.40729 -21.02947,0.16919 -21.02946,0.16919 -0.3208,76.67168 -0.3208,76.67168 -1.46446,3.62174 c -3.09343,7.65034 -6.75425,10.69757 -14.61757,12.16753 -2.09423,0.39149 -5.54003,0.55117 -7.65732,0.35484 -10.24102,-0.94961 -15.5228,-5.25728 -24.29756,-19.81641 l -1.05321,-1.74749 -17.29392,10.40914 c -9.51165,5.72504 -17.30547,10.55594 -17.3196,10.73535 -0.0721,0.91568 7.16623,12.06115 10.23998,15.76737 9.41869,11.35672 24.92105,19.73243 40.74185,22.01225 6.20463,0.89411 19.40187,0.77824 25.98496,-0.22814 z M 364.43108,410.955 c 24.77421,-5.3313 41.14507,-19.44193 47.27666,-40.74949 1.30021,-4.51827 1.47538,-6.51557 1.46302,-16.6817 -0.0121,-9.99582 -0.21107,-12.27438 -1.47918,-16.94393 -5.99631,-22.08016 -20.05084,-34.21665 -59.13018,-51.06058 -15.72679,-6.77856 -20.98084,-9.69641 -25.37129,-14.09005 -4.38648,-4.38966 -5.5089,-7.11315 -5.54549,-13.45577 -0.0448,-7.76136 4.09743,-13.63167 11.61775,-16.46459 2.95484,-1.11309 4.64374,-1.30647 9.67497,-1.10781 5.19676,0.2052 6.72897,0.53793 10.39444,2.25726 4.88206,2.28997 9.02417,6.12315 12.60739,11.66707 l 2.45309,3.7954 11.18274,-7.15564 c 6.15051,-3.93561 13.57557,-8.69167 16.50013,-10.56904 l 5.31739,-3.4134 -1.74359,-3.00264 c -8.47,-14.5862 -21.29689,-24.35405 -37.78973,-28.77741 -5.92903,-1.59015 -7.39861,-1.72259 -19.56346,-1.76305 -14.4522,-0.0481 -19.06146,0.71526 -28.95551,4.79523 -13.7425,5.66695 -24.94869,16.88006 -29.96875,29.98722 -2.94517,7.68973 -3.61086,11.74956 -3.54624,21.62754 0.11548,17.65119 5.04027,30.19986 16.25031,41.40684 8.61485,8.61249 18.40092,14.36864 41.40816,24.35616 22.72431,9.86472 27.93,13.1894 31.64728,20.21194 1.45116,2.74147 1.69831,4.00115 1.69942,8.66166 0.001,6.45159 -1.14404,9.15243 -5.63987,13.29654 -5.66849,5.22503 -11.98918,7.23984 -22.66661,7.2253 -8.34593,-0.0113 -13.6379,-1.14651 -20.01655,-4.29363 -5.75052,-2.83721 -13.43043,-9.84706 -17.80879,-16.25502 -2.19572,-3.21354 -3.36307,-4.39535 -4.0736,-4.12403 -2.97531,1.13617 -33.39667,19.14646 -33.39527,19.77094 0.005,2.2578 7.16908,12.26347 13.35054,18.646 12.79751,13.2138 27.9114,20.22481 51.12901,23.71766 1.05865,0.15926 7.41053,0.1942 14.11529,0.0776 9.44643,-0.16422 13.63471,-0.52272 18.60652,-1.59263 z"
     id="path854"
     inkscape:connector-curvature="0" />
</svg>
