<?xml version="1.0" encoding="UTF-8" standalone="no"?>
<svg
   xmlns:dc="http://purl.org/dc/elements/1.1/"
   xmlns:cc="http://creativecommons.org/ns#"
   xmlns:rdf="http://www.w3.org/1999/02/22-rdf-syntax-ns#"
   xmlns:svg="http://www.w3.org/2000/svg"
   xmlns="http://www.w3.org/2000/svg"
   xmlns:sodipodi="http://sodipodi.sourceforge.net/DTD/sodipodi-0.dtd"
   xmlns:inkscape="http://www.inkscape.org/namespaces/inkscape"
   viewBox="0 0 512 512"
   version="1.1"
   id="svg6520"
   sodipodi:docname="react.svg"
   inkscape:version="0.92.4 (33fec40, 2019-01-16)">
  <metadata
     id="metadata6526">
    <rdf:RDF>
      <cc:Work
         rdf:about="">
        <dc:format>image/svg+xml</dc:format>
        <dc:type
           rdf:resource="http://purl.org/dc/dcmitype/StillImage" />
      </cc:Work>
    </rdf:RDF>
  </metadata>
  <defs
     id="defs6524" />
  <sodipodi:namedview
     pagecolor="#ffffff"
     bordercolor="#666666"
     borderopacity="1"
     objecttolerance="10"
     gridtolerance="10"
     guidetolerance="10"
     inkscape:pageopacity="0"
     inkscape:pageshadow="2"
     inkscape:window-width="1920"
     inkscape:window-height="1016"
     id="namedview6522"
     showgrid="false"
     inkscape:zoom="0.4609375"
     inkscape:cx="256"
     inkscape:cy="256"
     inkscape:window-x="0"
     inkscape:window-y="1227"
     inkscape:window-maximized="1"
     inkscape:current-layer="svg6520" />
  <path
     d="M418.2 177.2c-5.4-1.8-10.8-3.5-16.2-5.1.9-3.7 1.7-7.4 2.5-11.1 12.3-59.6 4.2-107.5-23.1-123.3-26.3-15.1-69.2.6-112.6 38.4-4.3 3.7-8.5 7.6-12.5 11.5-2.7-2.6-5.5-5.2-8.3-7.7-45.5-40.4-91.1-57.4-118.4-41.5-26.2 15.2-34 60.3-23 116.7 1.1 5.6 2.3 11.1 3.7 16.7-6.4 1.8-12.7 3.8-18.6 5.9C38.3 196.2 0 225.4 0 255.6c0 31.2 40.8 62.5 96.3 81.5 4.5 1.5 9 3 13.6 4.3-1.5 6-2.8 11.9-4 18-10.5 55.5-2.3 99.5 23.9 114.6 27 15.6 72.4-.4 116.6-39.1 3.5-3.1 7-6.3 10.5-9.7 4.4 4.3 9 8.4 13.6 12.4 42.8 36.8 85.1 51.7 111.2 36.6 27-15.6 35.8-62.9 24.4-120.5-.9-4.4-1.9-8.9-3-13.5 3.2-.9 6.3-1.9 9.4-2.9 57.7-19.1 99.5-50 99.5-81.7 0-30.3-39.4-59.7-93.8-78.4zM282.9 92.3c37.2-32.4 71.9-45.1 87.7-36 16.9 9.7 23.4 48.9 12.8 100.4-.7 3.4-1.4 6.7-2.3 10-22.2-5-44.7-8.6-67.3-10.6-13-18.6-27.2-36.4-42.6-53.1 3.9-3.7 7.7-7.2 11.7-10.7zM167.2 307.5c5.1 8.7 10.3 17.4 15.8 25.9-15.6-1.7-31.1-4.2-46.4-7.5 4.4-14.4 9.9-29.3 16.3-44.5 4.6 8.8 9.3 17.5 14.3 26.1zm-30.3-120.3c14.4-3.2 29.7-5.8 45.6-7.8-5.3 8.3-10.5 16.8-15.4 25.4-4.9 8.5-9.7 17.2-14.2 26-6.3-14.9-11.6-29.5-16-43.6zm27.4 68.9c6.6-13.8 13.8-27.3 21.4-40.6s15.8-26.2 24.4-38.9c15-1.1 30.3-1.7 45.9-1.7s31 .6 45.9 1.7c8.5 12.6 16.6 25.5 24.3 38.7s14.9 26.7 21.7 40.4c-6.7 13.8-13.9 27.4-21.6 40.8-7.6 13.3-15.7 26.2-24.2 39-14.9 1.1-30.4 1.6-46.1 1.6s-30.9-.5-45.6-1.4c-8.7-12.7-16.9-25.7-24.6-39s-14.8-26.8-21.5-40.6zm180.6 51.2c5.1-8.8 9.9-17.7 14.6-26.7 6.4 14.5 12 29.2 16.9 44.3-15.5 3.5-31.2 6.2-47 8 5.4-8.4 10.5-17 15.5-25.6zm14.4-76.5c-4.7-8.8-9.5-17.6-14.5-26.2-4.9-8.5-10-16.9-15.3-25.2 16.1 2 31.5 4.7 45.9 8-4.6 14.8-10 29.2-16.1 43.4zM256.2 118.3c10.5 11.4 20.4 23.4 29.6 35.8-19.8-.9-39.7-.9-59.5 0 9.8-12.9 19.9-24.9 29.9-35.8zM140.2 57c16.8-9.8 54.1 4.2 93.4 39 2.5 2.2 5 4.6 7.6 7-15.5 16.7-29.8 34.5-42.9 53.1-22.6 2-45 5.5-67.2 10.4-1.3-5.1-2.4-10.3-3.5-15.5-9.4-48.4-3.2-84.9 12.6-94zm-24.5 263.6c-4.2-1.2-8.3-2.5-12.4-3.9-21.3-6.7-45.5-17.3-63-31.2-10.1-7-16.9-17.8-18.8-29.9 0-18.3 31.6-41.7 77.2-57.6 5.7-2 11.5-3.8 17.3-5.5 6.8 21.7 15 43 24.5 63.6-9.6 20.9-17.9 42.5-24.8 64.5zm116.6 98c-16.5 15.1-35.6 27.1-56.4 35.3-11.1 5.3-23.9 5.8-35.3 1.3-15.9-9.2-22.5-44.5-13.5-92 1.1-5.6 2.3-11.2 3.7-16.7 22.4 4.8 45 8.1 67.9 9.8 13.2 18.7 27.7 36.6 43.2 53.4-3.2 3.1-6.4 6.1-9.6 8.9zm24.5-24.3c-10.2-11-20.4-23.2-30.3-36.3 9.6.4 19.5.6 29.5.6 10.3 0 20.4-.2 30.4-.7-9.2 12.7-19.1 24.8-29.6 36.4zm130.7 30c-.9 12.2-6.9 23.6-16.5 31.3-15.9 9.2-49.8-2.8-86.4-34.2-4.2-3.6-8.4-7.5-12.7-11.5 15.3-16.9 29.4-34.8 42.2-53.6 22.9-1.9 45.7-5.4 68.2-10.5 1 4.1 1.9 8.2 2.7 12.2 4.9 21.6 5.7 44.1 2.5 66.3zm18.2-107.5c-2.8.9-5.6 1.8-8.5 2.6-7-21.8-15.6-43.1-25.5-63.8 9.6-20.4 17.7-41.4 24.5-62.9 5.2 1.5 10.2 3.1 15 4.7 46.6 16 79.3 39.8 79.3 58 0 19.6-34.9 44.9-84.8 61.4zm-149.7-15c25.3 0 45.8-20.5 45.8-45.8s-20.5-45.8-45.8-45.8c-25.3 0-45.8 20.5-45.8 45.8s20.5 45.8 45.8 45.8z"
     id="path6518" />
  <path
     style="fill:#ffffff;fill-opacity:1;stroke:#0000ff;stroke-width:2.16949153"
     d="m 238.22566,297.23556 c -16.33415,-7.0834 -26.36003,-22.56204 -26.35817,-40.69356 0.001,-13.39369 2.26635,-19.94165 10.13098,-29.28824 9.57942,-11.38449 21.14568,-16.11712 36.93256,-15.11188 17.87521,1.1382 28.77002,8.22508 36.50401,23.74519 6.73466,13.51468 7.23488,25.46608 1.57733,37.68581 -10.36897,22.39589 -36.99434,33.11307 -58.78671,23.66268 z"
     id="path7071"
     inkscape:connector-curvature="0" />
  <path
     style="fill:#ffffff;fill-opacity:1;stroke:#0000ff;stroke-width:2.16949153"
     d="m 132.36898,474.12055 c -11.33793,-5.77916 -20.48969,-18.54514 -25.66007,-35.79384 -4.92148,-16.41832 -4.90704,-56.10153 0.0286,-78.65838 1.90995,-8.72884 3.47264,-16.60479 3.47264,-17.50209 0,-0.8973 -5.54914,-3.38068 -12.331427,-5.5186 C 56.095102,323.4765 17.754939,297.55303 6.0100736,274.53119 -0.76268216,261.25548 0.68503235,243.3577 9.5521421,230.74134 23.094504,211.47291 54.536029,191.73688 93.621845,177.97028 c 16.921805,-5.96011 17.030475,-6.04724 15.828295,-12.69088 -4.84404,-26.76962 -5.72475,-35.43653 -5.73588,-56.44555 -0.008,-15.021121 1.23689,-28.150859 3.39393,-35.796607 11.31408,-40.103457 44.64519,-50.152184 90.09735,-27.16272 16.12908,8.158009 35.77843,21.713113 47.94761,33.076665 l 10.19724,9.522143 20.17564,-16.604876 c 12.194,-10.035833 28.24669,-20.627187 40.57717,-26.772259 19.87925,-9.907101 20.91527,-10.167382 40.47007,-10.167382 19.19817,0 20.43042,0.29152 28.41205,6.721623 22.57226,18.184497 30.17253,63.969803 19.2282,115.833923 -1.63423,7.74454 -2.79932,14.23117 -2.58905,14.41473 0.21023,0.18356 11.08597,4.35481 24.16825,9.26942 56.08218,21.06837 89.15189,51.961 84.79505,79.21273 -1.99094,12.45315 -10.11712,25.27165 -23.4138,36.93369 -12.46644,10.93389 -44.51385,28.23244 -66.72651,36.01762 -7.75593,2.71832 -14.86258,5.59414 -15.79253,6.39069 -0.92996,0.79655 -0.0885,10.64535 1.86984,21.88624 4.73591,27.18373 3.33149,65.45117 -3.00405,81.85429 -10.07256,26.07848 -25.16374,36.47783 -50.15483,34.56175 -24.99894,-1.91668 -52.95696,-16.07057 -83.58027,-42.31291 l -12.89912,-11.0538 -12.05003,10.33342 c -31.60158,27.09966 -60.94355,41.6197 -86.89749,43.00168 -13.56015,0.72205 -17.82051,0.0766 -25.57,-3.87336 z m 52.11767,-23.14846 c 16.57792,-7.75773 35.45653,-20.21428 49.24554,-32.49334 l 9.62369,-8.56988 -13.9778,-16.10021 c -7.68779,-8.8551 -17.71517,-21.22561 -22.28306,-27.49002 -6.41639,-8.79945 -9.62009,-11.39273 -14.08657,-11.40263 -5.34684,-0.0108 -40.23361,-4.86747 -55.95951,-7.7886 -6.65748,-1.23665 -6.84567,-1.03767 -9.76088,10.32107 -1.84731,7.19775 -2.97322,23.49004 -2.97436,43.03966 -0.002,28.79136 0.43789,32.35087 5.18617,41.99638 3.44873,7.00564 7.44899,11.56322 11.9322,13.59462 10.07985,4.5673 26.55785,2.61272 43.05458,-5.10705 z m 188.83472,3.74489 c 3.03976,-2.39108 7.78388,-8.98091 10.54247,-14.64406 4.47369,-9.18416 5.02157,-13.46107 5.0708,-39.58478 0.0319,-16.95124 -1.17064,-34.63299 -2.85497,-41.97693 -2.87681,-12.54344 -2.98862,-12.67712 -9.76271,-11.67126 -3.7689,0.55964 -19.39569,2.82702 -34.72618,5.03865 l -27.87363,4.0211 -14.93679,19.58236 c -8.21524,10.77028 -17.88579,23.12973 -21.49014,27.46539 l -6.55332,7.88304 14.65188,11.92079 c 38.89219,31.64269 72.71302,43.93741 87.93259,31.9657 z M 271.73428,377.939 c 7.10268,-8.73602 13.28573,-16.999 13.74011,-18.36218 0.59242,-1.77727 -7.51159,-2.47851 -28.64276,-2.47851 -16.2079,0 -29.46892,0.64004 -29.46892,1.42234 0,3.47489 27.28921,35.54425 30.10682,35.38052 0.74294,-0.0432 7.16207,-7.22617 14.26475,-15.96217 z m 29.29087,-42.48194 c 4.30783,-2.30549 27.39541,-39.64064 40.03912,-64.74773 l 7.91929,-15.72561 -7.99989,-14.56982 c -14.09087,-25.66302 -35.33653,-60.53095 -38.46422,-63.12671 -2.1374,-1.77389 -16.33694,-2.34265 -48.14906,-1.92863 l -45.11767,0.5872 -13.36586,21.69492 c -7.35122,11.9322 -17.6269,29.91389 -22.83484,39.9593 l -9.46898,18.26438 11.35844,21.96079 c 6.24714,12.07843 16.77522,30.46285 23.39574,40.85426 l 12.0373,18.89347 h 43.3486 c 24.01725,0 45.11162,-0.94355 47.30203,-2.11582 z M 168.24972,307.03772 c -9.91003,-16.87899 -15.92702,-25.17393 -16.91735,-23.32203 -4.03092,7.53766 -15.68846,40.96325 -14.64894,42.00276 1.79644,1.79645 29.97122,7.08092 38.98245,7.31158 l 7.96419,0.20387 z m 188.19774,22.67045 c 10.73898,-1.94399 19.87449,-3.84082 20.30112,-4.21515 1.14996,-1.00896 -15.666,-44.32692 -17.20764,-44.32692 -0.72553,0 -4.08143,5.12543 -7.45752,11.38983 -3.3761,6.26441 -9.87703,17.5913 -14.4465,25.17088 -4.56944,7.57959 -8.30811,14.16942 -8.30811,14.64406 0,1.61866 7.57817,0.87459 27.11865,-2.6627 z M 117.91192,315.33559 c 0.81711,-2.68474 6.35807,-17.28666 12.31324,-32.44871 l 10.82758,-27.56736 -7.63359,-17.99196 c -4.19847,-9.89558 -9.39932,-23.71821 -11.55743,-30.71696 -2.15812,-6.99874 -5.003,-13.1391 -6.32196,-13.64523 -1.31896,-0.50613 -10.56264,2.09012 -20.541531,5.76946 -44.85905,16.54005 -73.737212,38.74168 -73.737212,56.68943 0,19.90485 26.815035,41.8217 71.59322,58.51561 19.936793,7.4327 23.165553,7.61255 25.057683,1.39572 z m 304.70503,-4.16557 c 33.19122,-13.0752 58.78513,-31.02013 66.03622,-46.30068 3.01008,-6.34329 3.22948,-9.06605 1.22097,-15.15195 -5.26503,-15.95318 -38.05909,-38.46313 -75.52209,-51.8386 -8.72196,-3.11401 -16.59791,-5.66184 -17.50209,-5.66184 -0.9042,0 -3.4064,5.61356 -5.56043,12.47458 -2.15402,6.86101 -7.59532,21.02575 -12.09179,31.47719 l -8.17538,19.00262 9.21761,22.21772 c 5.06969,12.21975 10.91525,26.89083 12.99018,32.6024 4.294,11.82002 2.55108,11.75012 29.3868,1.17856 z M 168.41174,204.75094 c 7.36541,-12.79443 13.39165,-23.88833 13.39165,-24.65311 0,-1.47958 -12.62283,-0.0167 -33.13803,3.84065 -14.28403,2.68568 -13.95866,-0.32478 -3.19902,29.59896 3.57284,9.93644 7.18404,17.25848 8.02491,16.27119 0.84086,-0.98729 7.55508,-12.26325 14.92049,-25.05769 z m 201.18574,1.73396 c 3.43231,-10.10911 5.73525,-18.8855 5.11766,-19.5031 -1.51799,-1.51799 -40.82052,-8.23422 -43.1703,-7.37717 -1.02556,0.37406 4.6461,12.12909 12.60371,26.12228 16.55905,29.11848 15.82722,29.09668 25.44893,0.75799 z m 13.84385,-46.34694 c 1.21657,-4.51803 3.29062,-18.12986 4.60898,-30.24852 3.75608,-34.526461 -2.57896,-63.872236 -15.78535,-73.122347 -15.88126,-11.123679 -55.32941,4.561467 -91.66032,36.445444 l -10.75806,9.441273 11.99864,13.86632 c 6.59927,7.62647 16.44748,19.74006 21.88494,26.91909 l 9.88626,13.05279 27.23435,3.90901 c 22.07418,3.16836 34.61039,5.60686 39.91986,7.76505 0.25231,0.10255 1.45412,-3.51009 2.6707,-8.02811 z m -209.9916,-0.009 25.27346,-3.78027 12.46519,-16.23526 c 6.85587,-8.92948 16.22857,-20.36268 20.82824,-25.40721 4.59967,-5.04453 8.36304,-10.07948 8.36304,-11.18879 0,-3.51491 -21.51116,-21.521653 -37.95014,-31.767624 C 171.25077,52.316824 145.6265,48.154121 134.78303,60.760409 125.86477,71.1285 122.60234,87.850277 123.77937,117.16032 c 0.57962,14.43369 2.26313,31.48663 3.74112,37.89543 l 2.68725,11.65236 8.98427,-1.39955 c 4.94134,-0.76975 20.35732,-3.10066 34.25772,-5.17981 z m 112.48251,-6.42037 c -0.0109,-2.86372 -27.21261,-34.16949 -29.68897,-34.16949 -2.0216,0 -25.27328,26.03525 -29.81578,33.3852 -1.06624,1.72521 7.18908,2.41141 29.01057,2.41141 16.7755,0 30.49789,-0.7322 30.49418,-1.62712 z"
     id="path7073"
     inkscape:connector-curvature="0" />
</svg>
