<?xml version="1.0" encoding="UTF-8" standalone="no"?>
<svg
   xmlns:osb="http://www.openswatchbook.org/uri/2009/osb"
   xmlns:dc="http://purl.org/dc/elements/1.1/"
   xmlns:cc="http://creativecommons.org/ns#"
   xmlns:rdf="http://www.w3.org/1999/02/22-rdf-syntax-ns#"
   xmlns:svg="http://www.w3.org/2000/svg"
   xmlns="http://www.w3.org/2000/svg"
   xmlns:xlink="http://www.w3.org/1999/xlink"
   xmlns:sodipodi="http://sodipodi.sourceforge.net/DTD/sodipodi-0.dtd"
   xmlns:inkscape="http://www.inkscape.org/namespaces/inkscape"
   viewBox="0 0 570.79753 517.20558"
   version="1.1"
   id="svg3807"
   sodipodi:docname="react.svg"
   width="570.79755"
   height="517.20557"
   inkscape:version="0.92.4 (33fec40, 2019-01-16)">
  <metadata
     id="metadata3813">
    <rdf:RDF>
      <cc:Work
         rdf:about="">
        <dc:format>image/svg+xml</dc:format>
        <dc:type
           rdf:resource="http://purl.org/dc/dcmitype/StillImage" />
        <dc:title></dc:title>
      </cc:Work>
    </rdf:RDF>
  </metadata>
  <defs
     id="defs3811">
    <linearGradient
       id="linearGradient4692"
       osb:paint="solid">
      <stop
         style="stop-color:#0f52ba;stop-opacity:1;"
         offset="0"
         id="stop4690" />
    </linearGradient>
    <linearGradient
       id="linearGradient4684"
       osb:paint="solid">
      <stop
         style="stop-color:#0f52ba;stop-opacity:1;"
         offset="0"
         id="stop4682" />
    </linearGradient>
    <linearGradient
       inkscape:collect="always"
       xlink:href="#linearGradient4684"
       id="linearGradient4686"
       x1="175.55995"
       y1="296.51398"
       x2="666.35748"
       y2="296.51398"
       gradientUnits="userSpaceOnUse"
       gradientTransform="translate(-135.55995,-37.911193)" />
    <linearGradient
       inkscape:collect="always"
       xlink:href="#linearGradient4692"
       id="linearGradient4694"
       x1="375.76651"
       y1="296.59482"
       x2="465.96469"
       y2="296.59482"
       gradientUnits="userSpaceOnUse"
       gradientTransform="translate(-135.55995,-37.911193)" />
  </defs>
  <sodipodi:namedview
     pagecolor="#ffffff"
     bordercolor="#666666"
     borderopacity="1"
     objecttolerance="10"
     gridtolerance="10"
     guidetolerance="10"
     inkscape:pageopacity="0"
     inkscape:pageshadow="2"
     inkscape:window-width="1920"
     inkscape:window-height="1016"
     id="namedview3809"
     showgrid="false"
     inkscape:zoom="1.122486"
     inkscape:cx="223.74588"
     inkscape:cy="180.64109"
     inkscape:window-x="0"
     inkscape:window-y="1227"
     inkscape:window-maximized="1"
     inkscape:current-layer="svg3807"
     fit-margin-top="40"
     fit-margin-right="40"
     fit-margin-bottom="40"
     fit-margin-left="40" />
  <g
     id="g3805"
     style="fill:#61dafb"
     transform="translate(-135.55995,-37.911193)">
    <path
       d="m 666.3,296.5 c 0,-32.5 -40.7,-63.3 -103.1,-82.4 14.4,-63.6 8,-114.2 -20.2,-130.4 -6.5,-3.8 -14.1,-5.6 -22.4,-5.6 v 22.3 c 4.6,0 8.3,0.9 11.4,2.6 13.6,7.8 19.5,37.5 14.9,75.7 -1.1,9.4 -2.9,19.3 -5.1,29.4 -19.6,-4.8 -41,-8.5 -63.5,-10.9 -13.5,-18.5 -27.5,-35.3 -41.6,-50 32.6,-30.3 63.2,-46.9 84,-46.9 V 78 C 493.2,78 457.2,97.6 420.8,131.6 384.4,97.8 348.4,78.4 320.9,78.4 v 22.3 c 20.7,0 51.4,16.5 84,46.6 -14,14.7 -28,31.4 -41.3,49.9 -22.6,2.4 -44,6.1 -63.6,11 -2.3,-10 -4,-19.7 -5.2,-29 -4.7,-38.2 1.1,-67.9 14.6,-75.8 3,-1.8 6.9,-2.6 11.5,-2.6 V 78.5 c -8.4,0 -16,1.8 -22.6,5.6 -28.1,16.2 -34.4,66.7 -19.9,130.1 -62.2,19.2 -102.7,49.9 -102.7,82.3 0,32.5 40.7,63.3 103.1,82.4 -14.4,63.6 -8,114.2 20.2,130.4 6.5,3.8 14.1,5.6 22.5,5.6 27.5,0 63.5,-19.6 99.9,-53.6 36.4,33.8 72.4,53.2 99.9,53.2 8.4,0 16,-1.8 22.6,-5.6 28.1,-16.2 34.4,-66.7 19.9,-130.1 62,-19.1 102.5,-49.9 102.5,-82.3 z M 536.1,229.8 c -3.7,12.9 -8.3,26.2 -13.5,39.5 -4.1,-8 -8.4,-16 -13.1,-24 -4.6,-8 -9.5,-15.8 -14.4,-23.4 14.2,2.1 27.9,4.7 41,7.9 z m -45.8,106.5 c -7.8,13.5 -15.8,26.3 -24.1,38.2 -14.9,1.3 -30,2 -45.2,2 -15.1,0 -30.2,-0.7 -45,-1.9 -8.3,-11.9 -16.4,-24.6 -24.2,-38 -7.6,-13.1 -14.5,-26.4 -20.8,-39.8 6.2,-13.4 13.2,-26.8 20.7,-39.9 7.8,-13.5 15.8,-26.3 24.1,-38.2 14.9,-1.3 30,-2 45.2,-2 15.1,0 30.2,0.7 45,1.9 8.3,11.9 16.4,24.6 24.2,38 7.6,13.1 14.5,26.4 20.8,39.8 -6.3,13.4 -13.2,26.8 -20.7,39.9 z m 32.3,-13 c 5.4,13.4 10,26.8 13.8,39.8 -13.1,3.2 -26.9,5.9 -41.2,8 4.9,-7.7 9.8,-15.6 14.4,-23.7 4.6,-8 8.9,-16.1 13,-24.1 z M 421.2,430 c -9.3,-9.6 -18.6,-20.3 -27.8,-32 9,0.4 18.2,0.7 27.5,0.7 9.4,0 18.7,-0.2 27.8,-0.7 -9,11.7 -18.3,22.4 -27.5,32 z m -74.4,-58.9 c -14.2,-2.1 -27.9,-4.7 -41,-7.9 3.7,-12.9 8.3,-26.2 13.5,-39.5 4.1,8 8.4,16 13.1,24 4.7,8 9.5,15.8 14.4,23.4 z M 420.7,163 c 9.3,9.6 18.6,20.3 27.8,32 -9,-0.4 -18.2,-0.7 -27.5,-0.7 -9.4,0 -18.7,0.2 -27.8,0.7 9,-11.7 18.3,-22.4 27.5,-32 z m -74,58.9 c -4.9,7.7 -9.8,15.6 -14.4,23.7 -4.6,8 -8.9,16 -13,24 -5.4,-13.4 -10,-26.8 -13.8,-39.8 13.1,-3.1 26.9,-5.8 41.2,-7.9 z m -90.5,125.2 c -35.4,-15.1 -58.3,-34.9 -58.3,-50.6 0,-15.7 22.9,-35.6 58.3,-50.6 8.6,-3.7 18,-7 27.7,-10.1 5.7,19.6 13.2,40 22.5,60.9 -9.2,20.8 -16.6,41.1 -22.2,60.6 -9.9,-3.1 -19.3,-6.5 -28,-10.2 z M 310,490 c -13.6,-7.8 -19.5,-37.5 -14.9,-75.7 1.1,-9.4 2.9,-19.3 5.1,-29.4 19.6,4.8 41,8.5 63.5,10.9 13.5,18.5 27.5,35.3 41.6,50 -32.6,30.3 -63.2,46.9 -84,46.9 -4.5,-0.1 -8.3,-1 -11.3,-2.7 z m 237.2,-76.2 c 4.7,38.2 -1.1,67.9 -14.6,75.8 -3,1.8 -6.9,2.6 -11.5,2.6 -20.7,0 -51.4,-16.5 -84,-46.6 14,-14.7 28,-31.4 41.3,-49.9 22.6,-2.4 44,-6.1 63.6,-11 2.3,10.1 4.1,19.8 5.2,29.1 z m 38.5,-66.7 c -8.6,3.7 -18,7 -27.7,10.1 -5.7,-19.6 -13.2,-40 -22.5,-60.9 9.2,-20.8 16.6,-41.1 22.2,-60.6 9.9,3.1 19.3,6.5 28.1,10.2 35.4,15.1 58.3,34.9 58.3,50.6 -0.1,15.7 -23,35.6 -58.4,50.6 z M 320.8,78.4 Z"
       id="path3799"
       inkscape:connector-curvature="0" />
    <circle
       cx="420.89999"
       cy="296.5"
       r="45.700001"
       id="circle3801"
       style="fill:#0f52ba;fill-opacity:0;stroke:#0000ff" />
    <path
       d="M 520.5,78.1 Z"
       id="path3803"
       inkscape:connector-curvature="0" />
  </g>
  <path
     style="fill:url(#linearGradient4686);fill-opacity:1;stroke:#0000ff;stroke-width:0.62994707"
     d="m 176.5982,476.05903 c -9.80131,-1.74739 -19.35203,-7.67748 -25.58362,-15.88498 -9.36958,-12.34048 -14.20403,-29.91367 -14.87337,-54.0646 -0.49986,-18.03563 0.88243,-33.23005 4.93846,-54.28482 1.12575,-5.84375 1.74115,-10.49966 1.42595,-10.78821 -0.30498,-0.2792 -3.38927,-1.42668 -6.85398,-2.54994 -17.22793,-5.58534 -38.632409,-15.11605 -51.655659,-23.00057 -15.02331,-9.09539 -28.89007,-21.39947 -35.47656,-31.47863 -19.99033,-30.59074 -3.12734,-62.5522 46.69951,-88.51242 10.964169,-5.71243 23.579669,-11.03989 36.684089,-15.4915 5.87292,-1.99505 10.73906,-3.6648 10.81363,-3.71055 0.0746,-0.0457 -0.68662,-4.03809 -1.69154,-8.87185 -6.82982,-32.85203 -7.41164,-64.82263 -1.57195,-86.378843 4.70789,-17.37835 13.01576,-29.322111 24.5461,-35.288555 7.63052,-3.94846 11.70382,-4.844599 22.04815,-4.85067 7.46593,-0.0044 9.8563,0.253252 15.57734,1.678928 23.01126,5.734366 47.96126,20.201397 74.98154,43.477387 l 8.66576,7.46491 2.39972,-2.093 c 23.47947,-20.47847 37.59889,-30.517694 55.54743,-39.495467 30.32988,-15.170855 55.0286,-15.494127 71.1215,-0.930881 4.18347,3.785825 9.74669,11.687468 12.28233,17.445058 10.27017,23.3201 11.05429,58.824193 2.24475,101.639253 -0.68631,3.33552 -1.17423,6.09094 -1.08427,6.12316 0.09,0.0322 4.27398,1.43812 9.29781,3.12422 31.27969,10.49814 56.60312,24.19835 72.34776,39.14081 7.93284,7.52867 12.68035,13.60218 16.14067,20.6488 3.67334,7.48041 4.9409,12.55543 4.91235,19.66781 -0.094,23.40394 -20.51251,45.902 -59.06867,65.0845 -9.40975,4.68155 -25.57937,11.25986 -35.90698,14.6081 -3.46471,1.12326 -6.51191,2.23365 -6.77157,2.46752 -0.25966,0.23387 0.0934,3.01638 0.78462,6.18335 1.65698,7.59198 4.14749,23.24778 5.13689,32.2914 1.20597,11.02322 1.03956,34.66221 -0.30512,43.34273 -3.04097,19.63075 -8.53335,32.32873 -18.0815,41.80303 -8.05738,7.99506 -18.08395,11.86609 -30.73504,11.86609 -25.02955,0 -58.02931,-16.56529 -91.78023,-46.07204 l -7.9008,-6.90729 -7.38172,6.49701 c -25.48185,22.42781 -49.92783,37.31889 -71.63726,43.63728 -11.43565,3.32828 -21.0102,4.10835 -30.23652,2.46347 z m 15.23064,-21.72077 c 19.89679,-2.76241 46.34162,-18.16154 74.82284,-43.5702 l 3.12079,-2.78411 -6.8549,-7.50567 c -8.86719,-9.70899 -19.94668,-23.02249 -27.74011,-33.3335 -3.40438,-4.50412 -6.39007,-8.42293 -6.63487,-8.70846 -0.24481,-0.28553 -5.79596,-1.21147 -12.33591,-2.05763 -14.07686,-1.82132 -26.40166,-3.93359 -40.30322,-6.90732 -5.57917,-1.19345 -10.43713,-2.16992 -10.79549,-2.16992 -0.66772,0 -3.21499,12.38367 -4.85917,23.62301 -2.51765,17.21025 -2.81699,38.70737 -0.71053,51.02572 3.43941,20.1133 10.3845,30.52954 21.61539,32.41873 4.3406,0.73015 5.21337,0.72765 10.67518,-0.0307 z m 204.04633,-2.15013 c 7.65672,-3.74608 12.76054,-13.32698 15.7724,-29.60801 1.66126,-8.98014 1.65195,-34.73917 -0.0171,-47.24603 -1.55665,-11.66483 -4.9505,-28.37446 -5.73643,-28.2433 -0.3438,0.0574 -5.33856,1.11771 -11.09946,2.35629 -13.34488,2.86913 -30.22436,5.71557 -42.30064,7.13329 l -9.44975,1.10938 -6.47615,8.5072 c -9.03364,11.86677 -18.59022,23.44146 -27.42023,33.21071 l -7.52453,8.32491 2.77078,2.554 c 24.77602,22.83775 53.57347,39.80332 73.78716,43.47057 1.73236,0.31428 5.66516,0.46021 8.73956,0.32427 4.41062,-0.19503 6.29959,-0.59443 8.95435,-1.89328 z M 296.60495,380.0587 c 5.94746,-6.80023 16.37739,-19.38794 16.37664,-19.76469 -9e-5,-0.0433 -12.33136,-0.0786 -27.40281,-0.0786 -15.07146,0 -27.40261,0.10038 -27.40254,0.22306 2.7e-4,0.53484 12.73012,15.61897 19.6554,23.29049 l 7.57822,8.39482 1.87864,-1.78037 c 1.03325,-0.97921 5.22565,-5.60731 9.31645,-10.28466 z m 16.37679,-42.19433 c 18.36148,-1.07149 17.22227,-0.77744 20.42755,-5.2726 9.34,-13.09866 24.72048,-39.37113 35.14946,-60.04127 l 7.04396,-13.96104 -3.95469,-8.0871 c -9.1786,-18.76971 -21.39383,-40.0059 -34.22387,-59.49827 l -6.88789,-10.46461 -7.04491,-0.45008 c -23.27386,-1.48688 -53.12888,-1.47915 -75.67944,0.0196 -8.39692,0.55807 -7.34284,-0.3796 -17.42758,15.50291 -11.21597,17.6641 -17.65007,28.91754 -26.75957,46.80336 l -8.34187,16.37862 5.99981,11.96899 c 10.03275,20.01431 20.70939,38.40437 33.05762,56.94044 l 5.88254,8.83032 3.14973,0.37444 c 12.16921,1.44668 51.86148,1.99197 69.60915,0.9563 z M 204.99641,323.11436 c -7.52324,-12.20372 -15.23131,-25.6302 -18.39152,-32.03569 -1.32474,-2.68515 -2.57794,-4.88209 -2.78487,-4.88209 -1.01965,0 -13.5615,37.2225 -13.01858,38.63734 0.15775,0.41108 4.07226,1.5662 8.69892,2.56694 9.44795,2.04358 31.00162,5.95779 31.32638,5.68896 0.11626,-0.0962 -2.50738,-4.5852 -5.83033,-9.97546 z m 170.16295,7.49725 c 12.99209,-2.41499 24.57861,-4.97185 25.15866,-5.55191 0.74784,-0.74784 -10.40676,-34.11622 -12.94572,-38.72641 -0.27564,-0.50049 -1.99013,2.13768 -4.5031,6.92914 -5.03682,9.60368 -13.66591,24.65839 -18.77763,32.76031 -2.12509,3.3682 -3.8638,6.27383 -3.8638,6.45696 0,0.6967 3.46742,0.26289 14.93159,-1.86809 z M 151.55288,309.97994 c 3.80918,-12.29045 10.0729,-29.41274 15.04935,-41.13846 2.28129,-5.37527 4.00208,-10.26017 3.82398,-10.85533 -0.1781,-0.59516 -2.3125,-5.79215 -4.74311,-11.54887 -5.27355,-12.49 -10.98922,-28.05127 -14.55268,-39.62053 -1.42672,-4.63209 -2.68101,-8.50894 -2.7873,-8.61523 -0.8549,-0.8549 -24.95301,8.32153 -36.86436,14.03775 -21.405839,10.2726 -36.690799,21.62482 -44.167529,32.80346 -5.82944,8.71573 -6.39012,14.85606 -2.14458,23.48644 1.89272,3.84754 3.66974,6.08407 9.32396,11.73499 13.89279,13.88468 34.919469,25.55144 65.255689,36.20748 4.67736,1.64299 8.62111,2.8749 8.7639,2.73758 0.14279,-0.13732 1.512,-4.2905 3.04268,-9.22928 z m 280.56869,6.0943 c 30.03242,-10.26548 56.76887,-25.83855 68.24304,-39.74921 1.85034,-2.24326 4.3141,-5.82982 5.47501,-7.97014 1.95049,-3.59603 2.11074,-4.32264 2.11074,-9.57044 0,-5.13715 -0.19417,-6.06872 -2.0352,-9.76418 -8.39399,-16.84905 -36.99512,-35.31046 -74.72691,-48.2346 -4.46659,-1.52992 -8.35245,-2.78168 -8.63525,-2.78168 -0.2828,0 -1.25747,2.48042 -2.16595,5.51204 -4.17499,13.93208 -11.24623,33.23877 -17.86496,48.77689 l -2.59753,6.09798 2.26366,5.24107 c 6.74544,15.61778 17.84797,46.06531 19.42626,53.27453 0.24652,1.12603 0.81596,2.04733 1.26542,2.04733 0.44947,0 4.60823,-1.29581 9.24167,-2.87959 z M 189.14048,221.62701 c 4.89994,-9.29909 12.08473,-21.76879 17.60369,-30.55244 2.28581,-3.63794 3.9013,-6.70161 3.58998,-6.80814 -0.67914,-0.23241 -20.08742,3.12994 -28.06642,4.86231 -13.60321,2.95348 -12.3297,2.4856 -11.86801,4.36011 0.91409,3.7112 6.55227,20.47896 9.73342,28.94684 3.91529,10.4221 3.04853,10.49992 9.00734,-0.80868 z m 199.75026,5.03957 c 4.50655,-11.81476 11.8813,-34.31444 11.4038,-34.79195 -0.85025,-0.85025 -38.80312,-8.07545 -40.01532,-7.61784 -0.29626,0.11184 1.45518,3.32158 3.89207,7.13276 5.07957,7.94419 14.44567,24.10857 19.41318,33.50401 1.86581,3.52897 3.44457,6.36373 3.50834,6.29948 0.0638,-0.0643 0.87285,-2.10116 1.79793,-4.52646 z M 175.65328,167.72647 c 10.18133,-2.34502 31.17686,-5.89484 42.97736,-7.26639 l 9.27519,-1.07804 7.1967,-9.5091 C 244.05,138.0505 253.29682,126.91512 262.4346,116.95857 l 7.02695,-7.65658 -8.0049,-6.888 C 225.33008,71.328037 191.70908,56.855246 174.72323,65.077957 c -5.57578,2.69919 -10.31163,9.7933 -13.20646,19.78277 -5.60672,19.347633 -4.85029,50.954973 1.93896,81.018703 0.98978,4.38286 1.0614,4.49237 2.67014,4.0822 0.90919,-0.23183 5.19653,-1.23764 9.52741,-2.23516 z m 230.802,1.45744 c 0.17945,-0.60632 1.03218,-4.7876 1.89497,-9.29172 8.30292,-43.34494 4.8356,-79.760453 -8.7792,-92.203613 -14.93318,-13.648085 -51.05436,0.2284 -90.95308,34.940973 l -7.72163,6.71795 4.05753,4.16912 c 8.89204,9.13658 24.17271,27.44581 33.75155,40.44095 l 3.98366,5.40443 6.72202,0.76296 c 15.10118,1.71402 44.0481,6.74944 52.70816,9.16877 4.1308,1.15401 3.9607,1.15832 4.33602,-0.10982 z m -97.7852,-17.48103 c -6.4096,-7.76894 -14.61104,-17.18063 -19.21296,-22.04815 l -4.16902,-4.40963 -4.58133,4.72461 c -6.21954,6.41405 -22.5308,25.61913 -22.53028,26.52744 7e-5,0.13492 12.29667,0.24531 27.32576,0.24531 h 27.32562 z"
     id="path4680"
     inkscape:connector-curvature="0" />
  <path
     style="fill:url(#linearGradient4694);fill-opacity:1;stroke:#0000ff;stroke-width:0.62994707"
     d="m 279.839,303.19665 c -5.80269,-0.79282 -8.87739,-1.73174 -14.41826,-4.40294 -22.53735,-10.86501 -31.46071,-38.58369 -19.72882,-61.28367 4.00106,-7.74163 11.4509,-15.00997 19.41546,-18.94245 7.86065,-3.88117 13.37594,-5.0259 22.36151,-4.64127 12.37577,0.52975 21.98957,4.99978 30.72549,14.28611 8.14856,8.66197 11.94437,18.42089 11.8949,30.58145 -0.0701,17.23608 -9.38222,32.28596 -24.78922,40.06339 -7.23101,3.6502 -17.58702,5.4152 -25.46106,4.33938 z"
     id="path4688"
     inkscape:connector-curvature="0" />
</svg>
